<svg width="21" height="11" viewBox="0 0 21 11" fill="none" xmlns="http://www.w3.org/2000/svg">
<path d="M10.5645 10.1276C10.7695 10.1152 10.9643 10.0363 11.118 9.90361L20.318 1.83962C20.4085 1.76068 20.4822 1.6651 20.5348 1.55838C20.5873 1.45165 20.6178 1.33589 20.6243 1.21769C20.6308 1.09949 20.6134 0.981196 20.5729 0.869589C20.5324 0.757983 20.4697 0.65525 20.3883 0.56729C20.307 0.479331 20.2086 0.407874 20.0989 0.357003C19.9892 0.306133 19.8702 0.27685 19.7488 0.270843C19.6274 0.264836 19.506 0.282215 19.3915 0.32199C19.2771 0.361765 19.1718 0.423158 19.0817 0.502636L10.4998 8.02761L1.91795 0.502636C1.82788 0.423157 1.72259 0.361765 1.60812 0.32199C1.49365 0.282214 1.37224 0.264837 1.25086 0.270843C1.12947 0.276849 1.0105 0.306119 0.900758 0.35699C0.791015 0.40786 0.692658 0.47933 0.611325 0.56729C0.529993 0.65525 0.467284 0.757982 0.426793 0.869589C0.386301 0.981196 0.368823 1.09948 0.375361 1.21768C0.381898 1.33587 0.412323 1.45165 0.46489 1.55838C0.517458 1.6651 0.591135 1.76068 0.681698 1.83962L9.8817 9.90361C9.97418 9.98377 10.0823 10.0449 10.1997 10.0834C10.317 10.1219 10.4411 10.1369 10.5645 10.1276Z" fill="black"/>
</svg>
